<svg width="380" height="380" viewBox="0 0 380 380" fill="none" xmlns="http://www.w3.org/2000/svg">
<g filter="url(#filter0_d_0_1)">
<rect x="40" y="15" width="300" height="300" rx="65" fill="#F5F5F5"/>
<rect x="40" y="15" width="300" height="300" rx="65" fill="url(#paint0_linear_0_1)"/>
</g>
<g filter="url(#filter1_iiiii_0_1)">
<path d="M40 215H340V250C340 285.899 310.898 315 275 315H105C69.1015 315 40 285.899 40 250V215Z" fill="#DA143A"/>
</g>
<rect x="40" y="209" width="300" height="6" fill="white"/>
<g filter="url(#filter2_iiiii_0_1)">
<path d="M70.8199 170V75.4545H108.121C115.292 75.4545 121.401 76.8241 126.448 79.5632C131.496 82.2715 135.343 86.0417 137.99 90.8736C140.667 95.6747 142.006 101.214 142.006 107.493C142.006 113.771 140.652 119.311 137.943 124.112C135.235 128.913 131.311 132.653 126.171 135.33C121.063 138.008 114.876 139.347 107.613 139.347H83.8383V123.327H104.382C108.229 123.327 111.399 122.666 113.892 121.342C116.415 119.988 118.293 118.126 119.524 115.756C120.786 113.356 121.416 110.601 121.416 107.493C121.416 104.354 120.786 101.615 119.524 99.2756C118.293 96.9058 116.415 95.0746 113.892 93.782C111.368 92.4586 108.167 91.7969 104.289 91.7969H90.8092V170H70.8199ZM188.505 170H154.99V75.4545H188.782C198.292 75.4545 206.479 77.3473 213.342 81.1328C220.205 84.8875 225.483 90.2888 229.177 97.3366C232.901 104.384 234.763 112.817 234.763 122.635C234.763 132.483 232.901 140.947 229.177 148.026C225.483 155.104 220.174 160.536 213.25 164.322C206.356 168.107 198.108 170 188.505 170ZM174.979 152.873H187.674C193.584 152.873 198.554 151.826 202.586 149.734C206.648 147.61 209.695 144.332 211.726 139.901C213.788 135.438 214.819 129.683 214.819 122.635C214.819 115.649 213.788 109.94 211.726 105.508C209.695 101.076 206.664 97.8137 202.632 95.7209C198.6 93.6281 193.63 92.5817 187.721 92.5817H174.979V152.873ZM249.57 170V75.4545H312.169V91.9354H269.559V114.464H308.014V130.945H269.559V170H249.57Z" fill="white"/>
</g>
<path d="M96.6909 248.906H90.0502C89.8609 247.817 89.5117 246.852 89.0027 246.011C88.4937 245.159 87.8604 244.437 87.1028 243.845C86.3452 243.253 85.4811 242.809 84.5105 242.513C83.5517 242.206 82.5159 242.052 81.4032 242.052C79.4264 242.052 77.6745 242.549 76.1475 243.543C74.6206 244.526 73.425 245.97 72.5609 247.876C71.6968 249.77 71.2647 252.084 71.2647 254.818C71.2647 257.6 71.6968 259.944 72.5609 261.849C73.4368 263.743 74.6324 265.176 76.1475 266.146C77.6745 267.105 79.4205 267.585 81.3855 267.585C82.4745 267.585 83.4925 267.442 84.4395 267.158C85.3983 266.862 86.2565 266.43 87.014 265.862C87.7834 265.294 88.4286 264.596 88.9494 263.767C89.4821 262.938 89.849 261.991 90.0502 260.926L96.6909 260.962C96.4423 262.69 95.9037 264.312 95.0751 265.827C94.2583 267.342 93.1871 268.679 91.8613 269.839C90.5356 270.988 88.9849 271.887 87.2093 272.538C85.4338 273.178 83.4629 273.497 81.2967 273.497C78.1007 273.497 75.2479 272.757 72.7385 271.278C70.229 269.798 68.2522 267.661 66.8081 264.868C65.3639 262.074 64.6419 258.724 64.6419 254.818C64.6419 250.9 65.3699 247.55 66.8258 244.768C68.2818 241.975 70.2645 239.838 72.774 238.359C75.2834 236.879 78.1243 236.139 81.2967 236.139C83.3208 236.139 85.2029 236.423 86.943 236.991C88.6831 237.56 90.2337 238.394 91.595 239.495C92.9563 240.584 94.0749 241.922 94.9508 243.508C95.8386 245.082 96.4186 246.881 96.6909 248.906ZM114.336 273.533C111.672 273.533 109.364 272.947 107.411 271.775C105.458 270.603 103.943 268.964 102.865 266.857C101.8 264.75 101.267 262.287 101.267 259.47C101.267 256.653 101.8 254.185 102.865 252.066C103.943 249.947 105.458 248.302 107.411 247.13C109.364 245.958 111.672 245.372 114.336 245.372C116.999 245.372 119.307 245.958 121.26 247.13C123.213 248.302 124.723 249.947 125.788 252.066C126.865 254.185 127.404 256.653 127.404 259.47C127.404 262.287 126.865 264.75 125.788 266.857C124.723 268.964 123.213 270.603 121.26 271.775C119.307 272.947 116.999 273.533 114.336 273.533ZM114.371 268.384C115.815 268.384 117.023 267.987 117.993 267.194C118.964 266.389 119.686 265.312 120.159 263.962C120.645 262.613 120.887 261.11 120.887 259.452C120.887 257.783 120.645 256.274 120.159 254.925C119.686 253.563 118.964 252.48 117.993 251.675C117.023 250.871 115.815 250.468 114.371 250.468C112.891 250.468 111.66 250.871 110.678 251.675C109.707 252.48 108.979 253.563 108.494 254.925C108.02 256.274 107.784 257.783 107.784 259.452C107.784 261.11 108.02 262.613 108.494 263.962C108.979 265.312 109.707 266.389 110.678 267.194C111.66 267.987 112.891 268.384 114.371 268.384ZM139.287 257.02V273H132.859V245.727H139.003V250.362H139.322C139.95 248.835 140.95 247.621 142.323 246.722C143.708 245.822 145.418 245.372 147.454 245.372C149.336 245.372 150.976 245.775 152.373 246.58C153.781 247.384 154.87 248.55 155.64 250.077C156.421 251.604 156.806 253.457 156.794 255.635V273H150.366V256.629C150.366 254.806 149.893 253.38 148.946 252.35C148.011 251.32 146.715 250.805 145.057 250.805C143.933 250.805 142.933 251.054 142.057 251.551C141.193 252.036 140.512 252.741 140.015 253.664C139.529 254.587 139.287 255.706 139.287 257.02ZM186.712 245.727L177 273H169.898L160.185 245.727H167.039L173.307 265.987H173.591L179.876 245.727H186.712ZM202.306 273.533C199.572 273.533 197.21 272.964 195.222 271.828C193.245 270.68 191.724 269.058 190.658 266.963C189.593 264.856 189.06 262.376 189.06 259.523C189.06 256.718 189.593 254.256 190.658 252.137C191.736 250.006 193.239 248.349 195.168 247.165C197.098 245.97 199.365 245.372 201.969 245.372C203.65 245.372 205.236 245.644 206.727 246.189C208.231 246.722 209.556 247.55 210.705 248.675C211.865 249.799 212.776 251.232 213.439 252.972C214.102 254.7 214.433 256.759 214.433 259.151V261.121H192.079V256.789H208.272C208.26 255.558 207.994 254.463 207.473 253.504C206.952 252.534 206.224 251.77 205.289 251.214C204.366 250.657 203.289 250.379 202.058 250.379C200.744 250.379 199.589 250.699 198.595 251.338C197.601 251.965 196.826 252.794 196.269 253.824C195.725 254.842 195.446 255.96 195.435 257.18V260.962C195.435 262.548 195.725 263.909 196.305 265.045C196.885 266.17 197.696 267.034 198.737 267.638C199.779 268.23 200.998 268.526 202.395 268.526C203.33 268.526 204.176 268.395 204.934 268.135C205.692 267.863 206.348 267.466 206.905 266.945C207.461 266.424 207.881 265.779 208.165 265.01L214.167 265.685C213.788 267.271 213.066 268.656 212.001 269.839C210.947 271.011 209.598 271.923 207.952 272.574C206.307 273.213 204.425 273.533 202.306 273.533ZM219.871 273V245.727H226.103V250.273H226.387C226.884 248.698 227.737 247.485 228.944 246.633C230.163 245.769 231.554 245.337 233.117 245.337C233.472 245.337 233.868 245.354 234.306 245.39C234.756 245.414 235.129 245.455 235.425 245.514V251.427C235.153 251.332 234.721 251.249 234.129 251.178C233.549 251.095 232.986 251.054 232.442 251.054C231.27 251.054 230.217 251.308 229.281 251.817C228.358 252.315 227.63 253.007 227.097 253.895C226.565 254.783 226.298 255.807 226.298 256.967V273H219.871ZM254.779 245.727V250.699H239.1V245.727H254.779ZM242.971 239.193H249.399V264.797C249.399 265.661 249.529 266.324 249.789 266.786C250.061 267.235 250.417 267.543 250.855 267.709C251.293 267.875 251.778 267.957 252.311 267.957C252.713 267.957 253.08 267.928 253.411 267.869C253.755 267.809 254.015 267.756 254.193 267.709L255.276 272.734C254.932 272.852 254.441 272.982 253.802 273.124C253.175 273.266 252.405 273.349 251.494 273.373C249.884 273.42 248.434 273.178 247.144 272.645C245.853 272.1 244.829 271.26 244.072 270.124C243.326 268.987 242.959 267.567 242.971 265.862V239.193ZM271.935 273.533C269.201 273.533 266.839 272.964 264.85 271.828C262.874 270.68 261.353 269.058 260.287 266.963C259.222 264.856 258.689 262.376 258.689 259.523C258.689 256.718 259.222 254.256 260.287 252.137C261.364 250.006 262.868 248.349 264.797 247.165C266.727 245.97 268.993 245.372 271.598 245.372C273.279 245.372 274.865 245.644 276.356 246.189C277.859 246.722 279.185 247.55 280.333 248.675C281.493 249.799 282.405 251.232 283.068 252.972C283.731 254.7 284.062 256.759 284.062 259.151V261.121H261.708V256.789H277.901C277.889 255.558 277.623 254.463 277.102 253.504C276.581 252.534 275.853 251.77 274.918 251.214C273.995 250.657 272.917 250.379 271.686 250.379C270.373 250.379 269.218 250.699 268.224 251.338C267.23 251.965 266.454 252.794 265.898 253.824C265.354 254.842 265.075 255.96 265.064 257.18V260.962C265.064 262.548 265.354 263.909 265.934 265.045C266.514 266.17 267.324 267.034 268.366 267.638C269.408 268.23 270.627 268.526 272.024 268.526C272.959 268.526 273.805 268.395 274.563 268.135C275.32 267.863 275.977 267.466 276.534 266.945C277.09 266.424 277.51 265.779 277.794 265.01L283.796 265.685C283.417 267.271 282.695 268.656 281.63 269.839C280.576 271.011 279.227 271.923 277.581 272.574C275.936 273.213 274.054 273.533 271.935 273.533ZM289.5 273V245.727H295.732V250.273H296.016C296.513 248.698 297.366 247.485 298.573 246.633C299.792 245.769 301.183 245.337 302.746 245.337C303.101 245.337 303.497 245.354 303.935 245.39C304.385 245.414 304.758 245.455 305.054 245.514V251.427C304.782 251.332 304.349 251.249 303.758 251.178C303.178 251.095 302.615 251.054 302.071 251.054C300.899 251.054 299.845 251.308 298.91 251.817C297.987 252.315 297.259 253.007 296.726 253.895C296.194 254.783 295.927 255.807 295.927 256.967V273H289.5Z" fill="white"/>
<defs>
<filter id="filter0_d_0_1" x="0" y="0" width="380" height="380" filterUnits="userSpaceOnUse" color-interpolation-filters="sRGB">
<feFlood flood-opacity="0" result="BackgroundImageFix"/>
<feColorMatrix in="SourceAlpha" type="matrix" values="0 0 0 0 0 0 0 0 0 0 0 0 0 0 0 0 0 0 127 0" result="hardAlpha"/>
<feOffset dy="25"/>
<feGaussianBlur stdDeviation="20"/>
<feComposite in2="hardAlpha" operator="out"/>
<feColorMatrix type="matrix" values="0 0 0 0 0.040814 0 0 0 0 0.0939191 0 0 0 0 0.439102 0 0 0 0.4 0"/>
<feBlend mode="normal" in2="BackgroundImageFix" result="effect1_dropShadow_0_1"/>
<feBlend mode="normal" in="SourceGraphic" in2="effect1_dropShadow_0_1" result="shape"/>
</filter>
<filter id="filter1_iiiii_0_1" x="40" y="185" width="300" height="150" filterUnits="userSpaceOnUse" color-interpolation-filters="sRGB">
<feFlood flood-opacity="0" result="BackgroundImageFix"/>
<feBlend mode="normal" in="SourceGraphic" in2="BackgroundImageFix" result="shape"/>
<feColorMatrix in="SourceAlpha" type="matrix" values="0 0 0 0 0 0 0 0 0 0 0 0 0 0 0 0 0 0 127 0" result="hardAlpha"/>
<feOffset dy="20"/>
<feGaussianBlur stdDeviation="20"/>
<feComposite in2="hardAlpha" operator="arithmetic" k2="-1" k3="1"/>
<feColorMatrix type="matrix" values="0 0 0 0 1 0 0 0 0 0.983974 0 0 0 0 0.983974 0 0 0 0.5 0"/>
<feBlend mode="overlay" in2="shape" result="effect1_innerShadow_0_1"/>
<feColorMatrix in="SourceAlpha" type="matrix" values="0 0 0 0 0 0 0 0 0 0 0 0 0 0 0 0 0 0 127 0" result="hardAlpha"/>
<feOffset dy="-30"/>
<feGaussianBlur stdDeviation="30"/>
<feComposite in2="hardAlpha" operator="arithmetic" k2="-1" k3="1"/>
<feColorMatrix type="matrix" values="0 0 0 0 0 0 0 0 0 0 0 0 0 0 0 0 0 0 0.5 0"/>
<feBlend mode="overlay" in2="effect1_innerShadow_0_1" result="effect2_innerShadow_0_1"/>
<feColorMatrix in="SourceAlpha" type="matrix" values="0 0 0 0 0 0 0 0 0 0 0 0 0 0 0 0 0 0 127 0" result="hardAlpha"/>
<feOffset dy="5"/>
<feGaussianBlur stdDeviation="7.5"/>
<feComposite in2="hardAlpha" operator="arithmetic" k2="-1" k3="1"/>
<feColorMatrix type="matrix" values="0 0 0 0 1 0 0 0 0 0.996795 0 0 0 0 0.996795 0 0 0 0.7 0"/>
<feBlend mode="overlay" in2="effect2_innerShadow_0_1" result="effect3_innerShadow_0_1"/>
<feColorMatrix in="SourceAlpha" type="matrix" values="0 0 0 0 0 0 0 0 0 0 0 0 0 0 0 0 0 0 127 0" result="hardAlpha"/>
<feOffset dy="-40"/>
<feGaussianBlur stdDeviation="10"/>
<feComposite in2="hardAlpha" operator="arithmetic" k2="-1" k3="1"/>
<feColorMatrix type="matrix" values="0 0 0 0 0 0 0 0 0 0 0 0 0 0 0 0 0 0 0.15 0"/>
<feBlend mode="overlay" in2="effect3_innerShadow_0_1" result="effect4_innerShadow_0_1"/>
<feColorMatrix in="SourceAlpha" type="matrix" values="0 0 0 0 0 0 0 0 0 0 0 0 0 0 0 0 0 0 127 0" result="hardAlpha"/>
<feOffset dy="20"/>
<feGaussianBlur stdDeviation="10"/>
<feComposite in2="hardAlpha" operator="arithmetic" k2="-1" k3="1"/>
<feColorMatrix type="matrix" values="0 0 0 0 1 0 0 0 0 1 0 0 0 0 1 0 0 0 0.25 0"/>
<feBlend mode="overlay" in2="effect4_innerShadow_0_1" result="effect5_innerShadow_0_1"/>
</filter>
<filter id="filter2_iiiii_0_1" x="70.8198" y="45.4545" width="241.35" height="144.545" filterUnits="userSpaceOnUse" color-interpolation-filters="sRGB">
<feFlood flood-opacity="0" result="BackgroundImageFix"/>
<feBlend mode="normal" in="SourceGraphic" in2="BackgroundImageFix" result="shape"/>
<feColorMatrix in="SourceAlpha" type="matrix" values="0 0 0 0 0 0 0 0 0 0 0 0 0 0 0 0 0 0 127 0" result="hardAlpha"/>
<feOffset dy="20"/>
<feGaussianBlur stdDeviation="20"/>
<feComposite in2="hardAlpha" operator="arithmetic" k2="-1" k3="1"/>
<feColorMatrix type="matrix" values="0 0 0 0 1 0 0 0 0 0.983974 0 0 0 0 0.983974 0 0 0 0.5 0"/>
<feBlend mode="overlay" in2="shape" result="effect1_innerShadow_0_1"/>
<feColorMatrix in="SourceAlpha" type="matrix" values="0 0 0 0 0 0 0 0 0 0 0 0 0 0 0 0 0 0 127 0" result="hardAlpha"/>
<feOffset dy="-30"/>
<feGaussianBlur stdDeviation="30"/>
<feComposite in2="hardAlpha" operator="arithmetic" k2="-1" k3="1"/>
<feColorMatrix type="matrix" values="0 0 0 0 0 0 0 0 0 0 0 0 0 0 0 0 0 0 0.5 0"/>
<feBlend mode="overlay" in2="effect1_innerShadow_0_1" result="effect2_innerShadow_0_1"/>
<feColorMatrix in="SourceAlpha" type="matrix" values="0 0 0 0 0 0 0 0 0 0 0 0 0 0 0 0 0 0 127 0" result="hardAlpha"/>
<feOffset dy="5"/>
<feGaussianBlur stdDeviation="7.5"/>
<feComposite in2="hardAlpha" operator="arithmetic" k2="-1" k3="1"/>
<feColorMatrix type="matrix" values="0 0 0 0 1 0 0 0 0 0.996795 0 0 0 0 0.996795 0 0 0 0.7 0"/>
<feBlend mode="overlay" in2="effect2_innerShadow_0_1" result="effect3_innerShadow_0_1"/>
<feColorMatrix in="SourceAlpha" type="matrix" values="0 0 0 0 0 0 0 0 0 0 0 0 0 0 0 0 0 0 127 0" result="hardAlpha"/>
<feOffset dy="-40"/>
<feGaussianBlur stdDeviation="10"/>
<feComposite in2="hardAlpha" operator="arithmetic" k2="-1" k3="1"/>
<feColorMatrix type="matrix" values="0 0 0 0 0 0 0 0 0 0 0 0 0 0 0 0 0 0 0.15 0"/>
<feBlend mode="overlay" in2="effect3_innerShadow_0_1" result="effect4_innerShadow_0_1"/>
<feColorMatrix in="SourceAlpha" type="matrix" values="0 0 0 0 0 0 0 0 0 0 0 0 0 0 0 0 0 0 127 0" result="hardAlpha"/>
<feOffset dy="20"/>
<feGaussianBlur stdDeviation="10"/>
<feComposite in2="hardAlpha" operator="arithmetic" k2="-1" k3="1"/>
<feColorMatrix type="matrix" values="0 0 0 0 1 0 0 0 0 1 0 0 0 0 1 0 0 0 0.25 0"/>
<feBlend mode="overlay" in2="effect4_innerShadow_0_1" result="effect5_innerShadow_0_1"/>
</filter>
<linearGradient id="paint0_linear_0_1" x1="190" y1="15" x2="190" y2="315" gradientUnits="userSpaceOnUse">
<stop stop-color="#0075FF"/>
<stop offset="1" stop-color="#001DB2"/>
</linearGradient>
</defs>
</svg>
