<svg width="440" height="956" viewBox="0 0 440 956" fill="none" xmlns="http://www.w3.org/2000/svg">
<g clip-path="url(#clip0_447_751)">
<rect width="440" height="956" rx="34.9206" fill="white"/>
<rect width="157.612" height="5.47264" rx="2.73632" transform="matrix(-1 0 0 1 298.805 942.201)" fill="white"/>
<path d="M62.7801 29.102C63.4827 29.102 64.1489 29.2322 64.7789 29.4927C65.4088 29.7471 65.966 30.1438 66.4506 30.6829C66.9412 31.2219 67.3258 31.9155 67.6044 32.7634C67.8831 33.6114 68.0224 34.6259 68.0224 35.8071V35.8252C68.0224 37.2971 67.8104 38.5569 67.3864 39.6048C66.9624 40.6526 66.3537 41.4552 65.5602 42.0124C64.7728 42.5696 63.831 42.8483 62.7346 42.8483C61.9291 42.8483 61.2022 42.7029 60.5541 42.4122C59.9121 42.1154 59.3791 41.7096 58.9551 41.1947C58.5311 40.6738 58.2464 40.0802 58.1011 39.414L58.0829 39.3231H60.3906L60.4179 39.4049C60.539 39.7077 60.7056 39.9742 60.9176 40.2044C61.1296 40.4346 61.387 40.6132 61.6898 40.7404C61.9987 40.8676 62.347 40.9312 62.7346 40.9312C63.4251 40.9312 63.9884 40.7283 64.4245 40.3225C64.8667 39.9106 65.1968 39.3595 65.4148 38.669C65.639 37.9785 65.7662 37.2183 65.7964 36.3885C65.8025 36.2977 65.8055 36.2098 65.8055 36.125C65.8055 36.0342 65.8055 35.9464 65.8055 35.8616L65.3967 33.6811C65.3967 33.1783 65.2816 32.7271 65.0514 32.3273C64.8213 31.9215 64.5093 31.6005 64.1156 31.3643C63.728 31.1281 63.2889 31.0099 62.7982 31.0099C62.3197 31.0099 61.8836 31.125 61.4899 31.3552C61.0962 31.5854 60.7813 31.9003 60.5451 32.3001C60.3149 32.6938 60.1998 33.1359 60.1998 33.6265V33.6447C60.1998 34.1474 60.3119 34.5957 60.536 34.9894C60.7601 35.377 61.066 35.6829 61.4536 35.907C61.8412 36.1311 62.2834 36.2432 62.7801 36.2432C63.2767 36.2432 63.7189 36.1341 64.1065 35.9161C64.5002 35.692 64.8122 35.3891 65.0423 35.0075C65.2786 34.6259 65.3967 34.1868 65.3967 33.6901V33.6811H65.9418V36.0796H65.6329C65.4754 36.4249 65.2392 36.7489 64.9242 37.0518C64.6153 37.3485 64.2337 37.5878 63.7795 37.7695C63.3252 37.9512 62.7982 38.0421 62.1986 38.0421C61.3627 38.0421 60.6208 37.8573 59.9727 37.4879C59.3306 37.1123 58.8249 36.5975 58.4554 35.9433C58.092 35.2892 57.9103 34.5472 57.9103 33.7174V33.6992C57.9103 32.8149 58.1192 32.0275 58.5372 31.337C58.9551 30.6405 59.5305 30.0953 60.2634 29.7016C60.9963 29.3019 61.8352 29.102 62.7801 29.102ZM72.0745 40.7586C71.6626 40.7586 71.3204 40.6223 71.0478 40.3498C70.7753 40.0711 70.639 39.735 70.639 39.3413C70.639 38.9355 70.7753 38.5963 71.0478 38.3237C71.3204 38.0512 71.6626 37.9149 72.0745 37.9149C72.4863 37.9149 72.8286 38.0512 73.1011 38.3237C73.3737 38.5963 73.51 38.9355 73.51 39.3413C73.51 39.735 73.3737 40.0711 73.1011 40.3498C72.8286 40.6223 72.4863 40.7586 72.0745 40.7586ZM72.0745 34.0172C71.6626 34.0172 71.3204 33.8809 71.0478 33.6084C70.7753 33.3298 70.639 32.9936 70.639 32.5999C70.639 32.1941 70.7753 31.8549 71.0478 31.5823C71.3204 31.3098 71.6626 31.1735 72.0745 31.1735C72.4863 31.1735 72.8286 31.3098 73.1011 31.5823C73.3737 31.8549 73.51 32.1941 73.51 32.5999C73.51 32.9936 73.3737 33.3298 73.1011 33.6084C72.8286 33.8809 72.4863 34.0172 72.0745 34.0172ZM82.4773 42.5303V40.0136H76.063V38.0966C76.4022 37.503 76.7474 36.9124 77.0987 36.3249C77.45 35.7313 77.8044 35.1408 78.1617 34.5533C78.5251 33.9597 78.8855 33.3752 79.2429 32.7998C79.6063 32.2244 79.9667 31.655 80.324 31.0917C80.6875 30.5224 81.0509 29.9651 81.4143 29.42H84.7214V38.0784H86.484V40.0136H84.7214V42.5303H82.4773ZM78.2253 38.1329H82.5136V31.2825H82.3864C82.1139 31.7004 81.8383 32.1305 81.5597 32.5726C81.281 33.0087 80.9994 33.4539 80.7147 33.9082C80.43 34.3564 80.1454 34.8107 79.8607 35.271C79.576 35.7313 79.2974 36.1917 79.0248 36.652C78.7523 37.1063 78.4858 37.5575 78.2253 38.0057V38.1329ZM91.8625 42.5303V31.7277H91.7172L88.4464 34.0263V31.8276L91.8716 29.42H94.1975V42.5303H91.8625Z" fill="white"/>
<path fill-rule="evenodd" clip-rule="evenodd" d="M341.89 30.0456C341.89 29.3527 341.367 28.791 340.722 28.791H339.555C338.91 28.791 338.387 29.3527 338.387 30.0456V40.9186C338.387 41.6115 338.91 42.1732 339.555 42.1732H340.722C341.367 42.1732 341.89 41.6115 341.89 40.9186V30.0456ZM333.753 31.4674H334.921C335.565 31.4674 336.088 32.0426 336.088 32.7521V40.8885C336.088 41.598 335.565 42.1732 334.921 42.1732H333.753C333.108 42.1732 332.586 41.598 332.586 40.8885V32.7521C332.586 32.0426 333.108 31.4674 333.753 31.4674ZM329.012 34.3669H327.844C327.2 34.3669 326.677 34.9494 326.677 35.6679V40.8721C326.677 41.5907 327.2 42.1732 327.844 42.1732H329.012C329.657 42.1732 330.179 41.5907 330.179 40.8721V35.6679C330.179 34.9494 329.657 34.3669 329.012 34.3669ZM323.21 37.0433H322.042C321.398 37.0433 320.875 37.6175 320.875 38.3258V40.8907C320.875 41.599 321.398 42.1732 322.042 42.1732H323.21C323.855 42.1732 324.377 41.599 324.377 40.8907V38.3258C324.377 37.6175 323.855 37.0433 323.21 37.0433Z" fill="white"/>
<path fill-rule="evenodd" clip-rule="evenodd" d="M358.936 31.4348C361.658 31.4349 364.277 32.4441 366.249 34.2539C366.398 34.3936 366.635 34.3919 366.782 34.25L368.202 32.8671C368.276 32.7951 368.317 32.6976 368.317 32.5961C368.316 32.4947 368.274 32.3977 368.199 32.3265C363.02 27.5383 354.851 27.5383 349.673 32.3265C349.598 32.3976 349.555 32.4946 349.555 32.5961C349.554 32.6975 349.595 32.795 349.669 32.8671L351.09 34.25C351.236 34.3921 351.474 34.3938 351.622 34.2539C353.595 32.444 356.214 31.4348 358.936 31.4348ZM358.933 36.054C360.418 36.0539 361.851 36.614 362.952 37.6255C363.101 37.769 363.336 37.7659 363.481 37.6185L364.89 36.1744C364.964 36.0987 365.005 35.9959 365.004 35.8892C365.003 35.7824 364.96 35.6805 364.884 35.6063C361.531 32.4422 356.337 32.4422 352.984 35.6063C352.908 35.6805 352.865 35.7825 352.864 35.8893C352.863 35.9961 352.904 36.0988 352.979 36.1744L354.387 37.6185C354.532 37.7659 354.767 37.769 354.916 37.6255C356.016 36.6147 357.448 36.0546 358.933 36.054ZM361.696 39.1116C361.698 39.2269 361.657 39.3381 361.583 39.4189L359.201 42.1056C359.131 42.1846 359.036 42.229 358.937 42.229C358.837 42.229 358.742 42.1846 358.672 42.1056L356.289 39.4189C356.216 39.338 356.175 39.2268 356.178 39.1115C356.18 38.9962 356.224 38.887 356.301 38.8097C357.822 37.3716 360.051 37.3716 361.572 38.8097C361.649 38.8871 361.693 38.9963 361.696 39.1116Z" fill="white"/>
<rect opacity="0.35" x="376.524" y="28.9154" width="26.2687" height="13.1343" rx="4.1592" stroke="white" stroke-width="1.09453"/>
<path opacity="0.4" d="M404.434 33.6016V38.0623C405.314 37.6845 405.887 36.8056 405.887 35.8319C405.887 34.8582 405.314 33.9794 404.434 33.6016Z" fill="white"/>
<rect x="378.164" y="30.5576" width="22.9851" height="9.85075" rx="2.73632" fill="white"/>
<rect x="188" y="493.715" width="64" height="28" rx="14" fill="#3C3C43" fill-opacity="0.3"/>
<circle cx="239.5" cy="507.715" r="4.5" stroke="#B3B3B3"/>
<rect x="190" y="495.715" width="39" height="24" rx="12" fill="white"/>
</g>
<defs>
<clipPath id="clip0_447_751">
<rect width="440" height="956" rx="34.9206" fill="white"/>
</clipPath>
</defs>
</svg>
