<svg width="440" height="956" viewBox="0 0 440 956" fill="none" xmlns="http://www.w3.org/2000/svg">
<g clip-path="url(#clip0_447_800)">
<rect width="440" height="956" rx="34.9206" fill="white"/>
<rect width="157.612" height="5.47264" rx="2.73632" transform="matrix(-1 0 0 1 298.805 942.201)" fill="white"/>
<path d="M62.7801 29.102C63.4827 29.102 64.1489 29.2322 64.7789 29.4927C65.4088 29.7471 65.966 30.1438 66.4506 30.6829C66.9412 31.2219 67.3258 31.9155 67.6044 32.7634C67.8831 33.6114 68.0224 34.6259 68.0224 35.8071V35.8252C68.0224 37.2971 67.8104 38.5569 67.3864 39.6048C66.9624 40.6526 66.3537 41.4552 65.5602 42.0124C64.7728 42.5696 63.831 42.8483 62.7346 42.8483C61.9291 42.8483 61.2022 42.7029 60.5541 42.4122C59.9121 42.1154 59.3791 41.7096 58.9551 41.1947C58.5311 40.6738 58.2464 40.0802 58.1011 39.414L58.0829 39.3231H60.3906L60.4179 39.4049C60.539 39.7077 60.7056 39.9742 60.9176 40.2044C61.1296 40.4346 61.387 40.6132 61.6898 40.7404C61.9987 40.8676 62.347 40.9312 62.7346 40.9312C63.4251 40.9312 63.9884 40.7283 64.4245 40.3225C64.8667 39.9106 65.1968 39.3595 65.4148 38.669C65.639 37.9785 65.7662 37.2183 65.7964 36.3885C65.8025 36.2977 65.8055 36.2098 65.8055 36.125C65.8055 36.0342 65.8055 35.9464 65.8055 35.8616L65.3967 33.6811C65.3967 33.1783 65.2816 32.7271 65.0514 32.3273C64.8213 31.9215 64.5093 31.6005 64.1156 31.3643C63.728 31.1281 63.2889 31.0099 62.7982 31.0099C62.3197 31.0099 61.8836 31.125 61.4899 31.3552C61.0962 31.5854 60.7813 31.9003 60.5451 32.3001C60.3149 32.6938 60.1998 33.1359 60.1998 33.6265V33.6447C60.1998 34.1474 60.3119 34.5957 60.536 34.9894C60.7601 35.377 61.066 35.6829 61.4536 35.907C61.8412 36.1311 62.2834 36.2432 62.7801 36.2432C63.2767 36.2432 63.7189 36.1341 64.1065 35.9161C64.5002 35.692 64.8122 35.3891 65.0423 35.0075C65.2786 34.6259 65.3967 34.1868 65.3967 33.6901V33.6811H65.9418V36.0796H65.6329C65.4754 36.4249 65.2392 36.7489 64.9242 37.0518C64.6153 37.3485 64.2337 37.5878 63.7795 37.7695C63.3252 37.9512 62.7982 38.0421 62.1986 38.0421C61.3627 38.0421 60.6208 37.8573 59.9727 37.4879C59.3306 37.1123 58.8249 36.5975 58.4554 35.9433C58.092 35.2892 57.9103 34.5472 57.9103 33.7174V33.6992C57.9103 32.8149 58.1192 32.0275 58.5372 31.337C58.9551 30.6405 59.5305 30.0953 60.2634 29.7016C60.9963 29.3019 61.8352 29.102 62.7801 29.102ZM72.0745 40.7586C71.6626 40.7586 71.3204 40.6223 71.0478 40.3498C70.7753 40.0711 70.639 39.735 70.639 39.3413C70.639 38.9355 70.7753 38.5963 71.0478 38.3237C71.3204 38.0512 71.6626 37.9149 72.0745 37.9149C72.4863 37.9149 72.8286 38.0512 73.1011 38.3237C73.3737 38.5963 73.51 38.9355 73.51 39.3413C73.51 39.735 73.3737 40.0711 73.1011 40.3498C72.8286 40.6223 72.4863 40.7586 72.0745 40.7586ZM72.0745 34.0172C71.6626 34.0172 71.3204 33.8809 71.0478 33.6084C70.7753 33.3298 70.639 32.9936 70.639 32.5999C70.639 32.1941 70.7753 31.8549 71.0478 31.5823C71.3204 31.3098 71.6626 31.1735 72.0745 31.1735C72.4863 31.1735 72.8286 31.3098 73.1011 31.5823C73.3737 31.8549 73.51 32.1941 73.51 32.5999C73.51 32.9936 73.3737 33.3298 73.1011 33.6084C72.8286 33.8809 72.4863 34.0172 72.0745 34.0172ZM82.4773 42.5303V40.0136H76.063V38.0966C76.4022 37.503 76.7474 36.9124 77.0987 36.3249C77.45 35.7313 77.8044 35.1408 78.1617 34.5533C78.5251 33.9597 78.8855 33.3752 79.2429 32.7998C79.6063 32.2244 79.9667 31.655 80.324 31.0917C80.6875 30.5224 81.0509 29.9651 81.4143 29.42H84.7214V38.0784H86.484V40.0136H84.7214V42.5303H82.4773ZM78.2253 38.1329H82.5136V31.2825H82.3864C82.1139 31.7004 81.8383 32.1305 81.5597 32.5726C81.281 33.0087 80.9994 33.4539 80.7147 33.9082C80.43 34.3564 80.1454 34.8107 79.8607 35.271C79.576 35.7313 79.2974 36.1917 79.0248 36.652C78.7523 37.1063 78.4858 37.5575 78.2253 38.0057V38.1329ZM91.8625 42.5303V31.7277H91.7172L88.4464 34.0263V31.8276L91.8716 29.42H94.1975V42.5303H91.8625Z" fill="white"/>
<path fill-rule="evenodd" clip-rule="evenodd" d="M341.89 30.0456C341.89 29.3527 341.367 28.791 340.722 28.791H339.555C338.91 28.791 338.387 29.3527 338.387 30.0456V40.9186C338.387 41.6115 338.91 42.1732 339.555 42.1732H340.722C341.367 42.1732 341.89 41.6115 341.89 40.9186V30.0456ZM333.753 31.4674H334.921C335.565 31.4674 336.088 32.0426 336.088 32.7521V40.8885C336.088 41.598 335.565 42.1732 334.921 42.1732H333.753C333.108 42.1732 332.586 41.598 332.586 40.8885V32.7521C332.586 32.0426 333.108 31.4674 333.753 31.4674ZM329.012 34.3669H327.844C327.2 34.3669 326.677 34.9494 326.677 35.6679V40.8721C326.677 41.5907 327.2 42.1732 327.844 42.1732H329.012C329.657 42.1732 330.179 41.5907 330.179 40.8721V35.6679C330.179 34.9494 329.657 34.3669 329.012 34.3669ZM323.21 37.0433H322.042C321.398 37.0433 320.875 37.6175 320.875 38.3258V40.8907C320.875 41.599 321.398 42.1732 322.042 42.1732H323.21C323.855 42.1732 324.377 41.599 324.377 40.8907V38.3258C324.377 37.6175 323.855 37.0433 323.21 37.0433Z" fill="white"/>
<path fill-rule="evenodd" clip-rule="evenodd" d="M358.936 31.4348C361.658 31.4349 364.277 32.4441 366.249 34.2539C366.398 34.3936 366.635 34.3919 366.782 34.25L368.202 32.8671C368.276 32.7951 368.317 32.6976 368.317 32.5961C368.316 32.4947 368.274 32.3977 368.199 32.3265C363.02 27.5383 354.851 27.5383 349.673 32.3265C349.598 32.3976 349.555 32.4946 349.555 32.5961C349.554 32.6975 349.595 32.795 349.669 32.8671L351.09 34.25C351.236 34.3921 351.474 34.3938 351.622 34.2539C353.595 32.444 356.214 31.4348 358.936 31.4348ZM358.933 36.054C360.418 36.0539 361.851 36.614 362.952 37.6255C363.101 37.769 363.336 37.7659 363.481 37.6185L364.89 36.1744C364.964 36.0987 365.005 35.9959 365.004 35.8892C365.003 35.7824 364.96 35.6805 364.884 35.6063C361.531 32.4422 356.337 32.4422 352.984 35.6063C352.908 35.6805 352.865 35.7825 352.864 35.8893C352.863 35.9961 352.904 36.0988 352.979 36.1744L354.387 37.6185C354.532 37.7659 354.767 37.769 354.916 37.6255C356.016 36.6147 357.448 36.0546 358.933 36.054ZM361.696 39.1116C361.698 39.2269 361.657 39.3381 361.583 39.4189L359.201 42.1056C359.131 42.1846 359.036 42.229 358.937 42.229C358.837 42.229 358.742 42.1846 358.672 42.1056L356.289 39.4189C356.216 39.338 356.175 39.2268 356.178 39.1115C356.18 38.9962 356.224 38.887 356.301 38.8097C357.822 37.3716 360.051 37.3716 361.572 38.8097C361.649 38.8871 361.693 38.9963 361.696 39.1116Z" fill="white"/>
<rect opacity="0.35" x="376.524" y="28.9154" width="26.2687" height="13.1343" rx="4.1592" stroke="white" stroke-width="1.09453"/>
<path opacity="0.4" d="M404.434 33.6016V38.0623C405.314 37.6845 405.887 36.8056 405.887 35.8319C405.887 34.8582 405.314 33.9794 404.434 33.6016Z" fill="white"/>
<rect x="378.164" y="30.5576" width="22.9851" height="9.85075" rx="2.73632" fill="white"/>
<path d="M81.9857 467L93.4642 444.518V444.447H79.806V441.635H96.5931V444.57L85.308 467H81.9857ZM115.48 467.352C113.921 467.352 112.556 466.965 111.384 466.191C110.224 465.406 109.322 464.305 108.677 462.887C108.032 461.457 107.71 459.781 107.71 457.859V457.842C107.71 455.92 108.032 454.25 108.677 452.832C109.333 451.414 110.241 450.318 111.402 449.545C112.562 448.76 113.904 448.367 115.427 448.367C116.294 448.367 117.097 448.508 117.835 448.789C118.585 449.059 119.253 449.451 119.839 449.967C120.425 450.471 120.906 451.074 121.281 451.777H121.351V441.635H124.409V467H121.351V463.906H121.281C120.906 464.621 120.431 465.236 119.857 465.752C119.282 466.256 118.626 466.648 117.888 466.93C117.161 467.211 116.359 467.352 115.48 467.352ZM116.077 464.645C117.109 464.645 118.023 464.363 118.82 463.801C119.616 463.238 120.238 462.447 120.683 461.428C121.14 460.408 121.368 459.219 121.368 457.859V457.842C121.368 456.482 121.14 455.299 120.683 454.291C120.226 453.271 119.599 452.48 118.802 451.918C118.017 451.355 117.109 451.074 116.077 451.074C114.999 451.074 114.068 451.35 113.282 451.9C112.497 452.451 111.894 453.23 111.472 454.238C111.05 455.246 110.839 456.447 110.839 457.842V457.859C110.839 459.254 111.05 460.461 111.472 461.48C111.894 462.5 112.497 463.285 113.282 463.836C114.068 464.375 114.999 464.645 116.077 464.645ZM134.424 467.352C133.217 467.352 132.156 467.123 131.242 466.666C130.328 466.209 129.614 465.564 129.098 464.732C128.594 463.9 128.342 462.934 128.342 461.832V461.797C128.342 460.754 128.6 459.852 129.115 459.09C129.643 458.328 130.399 457.725 131.383 457.279C132.379 456.834 133.574 456.57 134.969 456.488L141.737 456.102V458.475L135.321 458.861C134.102 458.932 133.153 459.225 132.473 459.74C131.805 460.256 131.471 460.941 131.471 461.797V461.832C131.471 462.711 131.799 463.408 132.455 463.924C133.123 464.439 134.008 464.697 135.11 464.697C136.071 464.697 136.932 464.498 137.694 464.1C138.467 463.689 139.076 463.133 139.522 462.43C139.979 461.727 140.207 460.936 140.207 460.057V454.66C140.207 453.547 139.856 452.674 139.153 452.041C138.461 451.396 137.477 451.074 136.199 451.074C135.028 451.074 134.078 451.332 133.352 451.848C132.637 452.352 132.192 453.014 132.016 453.834L131.981 453.992H129.028L129.045 453.799C129.139 452.791 129.479 451.877 130.065 451.057C130.662 450.236 131.483 449.586 132.526 449.105C133.569 448.613 134.805 448.367 136.235 448.367C137.676 448.367 138.918 448.613 139.961 449.105C141.016 449.598 141.83 450.295 142.405 451.197C142.979 452.088 143.266 453.143 143.266 454.361V467H140.207V464.029H140.137C139.785 464.697 139.317 465.283 138.731 465.787C138.145 466.279 137.483 466.666 136.744 466.947C136.018 467.217 135.244 467.352 134.424 467.352ZM149.448 473.152C149.155 473.152 148.857 473.135 148.552 473.1C148.259 473.076 148.013 473.047 147.814 473.012V470.516C147.943 470.539 148.089 470.562 148.253 470.586C148.429 470.609 148.611 470.621 148.798 470.621C149.771 470.621 150.544 470.451 151.118 470.111C151.704 469.771 152.179 469.086 152.542 468.055L152.911 467.018L146.126 448.719H149.396L154.669 464.645L154.019 463.941H154.933L154.282 464.645L159.573 448.719H162.79L155.654 468.143C155.22 469.303 154.734 470.252 154.195 470.99C153.655 471.729 153.005 472.273 152.243 472.625C151.482 472.977 150.55 473.152 149.448 473.152ZM179.603 467.352C177.927 467.352 176.673 466.953 175.841 466.156C175.009 465.359 174.593 464.088 174.593 462.342V451.25H171.921V448.719H174.593V443.779H177.757V448.719H181.237V451.25H177.757V462.324C177.757 463.297 177.968 463.959 178.39 464.311C178.812 464.65 179.433 464.82 180.253 464.82C180.441 464.82 180.616 464.814 180.78 464.803C180.956 464.779 181.109 464.762 181.237 464.75V467.229C181.05 467.252 180.804 467.275 180.499 467.299C180.206 467.334 179.907 467.352 179.603 467.352ZM185.065 467V448.719H188.123V451.812H188.193C188.498 450.758 189.025 449.92 189.775 449.299C190.525 448.678 191.416 448.367 192.447 448.367C192.717 448.367 192.957 448.385 193.168 448.42C193.391 448.443 193.561 448.467 193.678 448.49V451.461C193.561 451.414 193.35 451.373 193.045 451.338C192.752 451.303 192.418 451.285 192.043 451.285C191.258 451.285 190.566 451.461 189.969 451.812C189.383 452.164 188.926 452.674 188.598 453.342C188.281 453.998 188.123 454.789 188.123 455.715V467H185.065ZM196.907 467V448.719H199.966V467H196.907ZM198.437 445.625C197.909 445.625 197.458 445.438 197.083 445.062C196.708 444.688 196.521 444.236 196.521 443.709C196.521 443.17 196.708 442.719 197.083 442.355C197.458 441.98 197.909 441.793 198.437 441.793C198.976 441.793 199.427 441.98 199.79 442.355C200.165 442.719 200.353 443.17 200.353 443.709C200.353 444.236 200.165 444.688 199.79 445.062C199.427 445.438 198.976 445.625 198.437 445.625ZM210.016 467.352C208.809 467.352 207.748 467.123 206.834 466.666C205.92 466.209 205.205 465.564 204.689 464.732C204.186 463.9 203.934 462.934 203.934 461.832V461.797C203.934 460.754 204.191 459.852 204.707 459.09C205.234 458.328 205.99 457.725 206.975 457.279C207.971 456.834 209.166 456.57 210.561 456.488L217.328 456.102V458.475L210.912 458.861C209.693 458.932 208.744 459.225 208.064 459.74C207.396 460.256 207.062 460.941 207.062 461.797V461.832C207.062 462.711 207.391 463.408 208.047 463.924C208.715 464.439 209.6 464.697 210.701 464.697C211.662 464.697 212.523 464.498 213.285 464.1C214.059 463.689 214.668 463.133 215.113 462.43C215.57 461.727 215.799 460.936 215.799 460.057V454.66C215.799 453.547 215.447 452.674 214.744 452.041C214.053 451.396 213.068 451.074 211.791 451.074C210.619 451.074 209.67 451.332 208.943 451.848C208.229 452.352 207.783 453.014 207.607 453.834L207.572 453.992H204.619L204.637 453.799C204.73 452.791 205.07 451.877 205.656 451.057C206.254 450.236 207.074 449.586 208.117 449.105C209.16 448.613 210.396 448.367 211.826 448.367C213.268 448.367 214.51 448.613 215.553 449.105C216.607 449.598 217.422 450.295 217.996 451.197C218.57 452.088 218.857 453.143 218.857 454.361V467H215.799V464.029H215.729C215.377 464.697 214.908 465.283 214.322 465.787C213.736 466.279 213.074 466.666 212.336 466.947C211.609 467.217 210.836 467.352 210.016 467.352ZM223.44 467V441.635H226.499V467H223.44ZM246.616 467.352C244.87 467.352 243.364 466.965 242.099 466.191C240.845 465.418 239.878 464.328 239.198 462.922C238.53 461.504 238.196 459.84 238.196 457.93V457.912C238.196 456.025 238.536 454.367 239.216 452.938C239.895 451.496 240.85 450.377 242.081 449.58C243.311 448.771 244.759 448.367 246.423 448.367C248.087 448.367 249.516 448.754 250.712 449.527C251.919 450.289 252.845 451.361 253.489 452.744C254.134 454.127 254.456 455.732 254.456 457.561V458.686H239.725V456.295H252.944L251.397 458.51V457.332C251.397 455.914 251.181 454.742 250.747 453.816C250.325 452.891 249.739 452.205 248.989 451.76C248.239 451.303 247.378 451.074 246.405 451.074C245.432 451.074 244.559 451.314 243.786 451.795C243.013 452.264 242.403 452.967 241.958 453.904C241.513 454.83 241.29 455.973 241.29 457.332V458.51C241.29 459.799 241.507 460.9 241.94 461.814C242.386 462.729 243.013 463.432 243.821 463.924C244.63 464.404 245.585 464.645 246.686 464.645C247.46 464.645 248.151 464.527 248.761 464.293C249.37 464.059 249.88 463.736 250.29 463.326C250.7 462.916 250.993 462.447 251.169 461.92L251.222 461.762H254.227L254.192 461.938C254.04 462.688 253.747 463.391 253.313 464.047C252.891 464.703 252.347 465.283 251.679 465.787C251.011 466.279 250.249 466.666 249.393 466.947C248.538 467.217 247.612 467.352 246.616 467.352ZM258.09 467V448.719H261.148V451.32H261.219C261.711 450.465 262.426 449.762 263.363 449.211C264.301 448.648 265.461 448.367 266.844 448.367C268.848 448.367 270.4 448.977 271.502 450.195C272.615 451.402 273.172 453.049 273.172 455.135V467H270.113V455.68C270.113 454.191 269.762 453.055 269.058 452.27C268.367 451.473 267.318 451.074 265.912 451.074C264.951 451.074 264.113 451.291 263.398 451.725C262.683 452.146 262.127 452.744 261.728 453.518C261.342 454.291 261.148 455.199 261.148 456.242V467H258.09ZM282.958 467.352C281.751 467.352 280.69 467.123 279.776 466.666C278.862 466.209 278.147 465.564 277.632 464.732C277.128 463.9 276.876 462.934 276.876 461.832V461.797C276.876 460.754 277.134 459.852 277.649 459.09C278.177 458.328 278.932 457.725 279.917 457.279C280.913 456.834 282.108 456.57 283.503 456.488L290.27 456.102V458.475L283.854 458.861C282.636 458.932 281.686 459.225 281.007 459.74C280.339 460.256 280.005 460.941 280.005 461.797V461.832C280.005 462.711 280.333 463.408 280.989 463.924C281.657 464.439 282.542 464.697 283.643 464.697C284.604 464.697 285.466 464.498 286.227 464.1C287.001 463.689 287.61 463.133 288.055 462.43C288.512 461.727 288.741 460.936 288.741 460.057V454.66C288.741 453.547 288.389 452.674 287.686 452.041C286.995 451.396 286.011 451.074 284.733 451.074C283.561 451.074 282.612 451.332 281.886 451.848C281.171 452.352 280.725 453.014 280.55 453.834L280.514 453.992H277.561L277.579 453.799C277.673 452.791 278.012 451.877 278.598 451.057C279.196 450.236 280.016 449.586 281.059 449.105C282.102 448.613 283.339 448.367 284.768 448.367C286.21 448.367 287.452 448.613 288.495 449.105C289.55 449.598 290.364 450.295 290.938 451.197C291.512 452.088 291.8 453.143 291.8 454.361V467H288.741V464.029H288.671C288.319 464.697 287.85 465.283 287.264 465.787C286.679 466.279 286.016 466.666 285.278 466.947C284.552 467.217 283.778 467.352 282.958 467.352ZM305.312 467.352C304.445 467.352 303.642 467.211 302.904 466.93C302.166 466.648 301.51 466.256 300.935 465.752C300.373 465.236 299.898 464.621 299.511 463.906H299.441V467H296.383V441.635H299.441V451.777H299.511C299.898 451.074 300.379 450.471 300.953 449.967C301.539 449.451 302.207 449.059 302.957 448.789C303.707 448.508 304.51 448.367 305.365 448.367C306.9 448.367 308.242 448.76 309.39 449.545C310.551 450.318 311.453 451.414 312.097 452.832C312.754 454.25 313.082 455.92 313.082 457.842V457.859C313.082 459.781 312.76 461.457 312.115 462.887C311.47 464.305 310.562 465.406 309.39 466.191C308.23 466.965 306.871 467.352 305.312 467.352ZM304.715 464.645C305.793 464.645 306.724 464.375 307.51 463.836C308.295 463.285 308.898 462.5 309.32 461.48C309.742 460.461 309.953 459.254 309.953 457.859V457.842C309.953 456.447 309.742 455.246 309.32 454.238C308.898 453.23 308.295 452.451 307.51 451.9C306.724 451.35 305.793 451.074 304.715 451.074C303.683 451.074 302.769 451.355 301.972 451.918C301.187 452.48 300.566 453.271 300.109 454.291C299.652 455.299 299.424 456.482 299.424 457.842V457.859C299.424 459.219 299.646 460.408 300.092 461.428C300.549 462.447 301.176 463.238 301.972 463.801C302.769 464.363 303.683 464.645 304.715 464.645ZM316.856 467V441.635H319.915V467H316.856ZM332.109 467.352C330.363 467.352 328.857 466.965 327.591 466.191C326.338 465.418 325.371 464.328 324.691 462.922C324.023 461.504 323.689 459.84 323.689 457.93V457.912C323.689 456.025 324.029 454.367 324.709 452.938C325.388 451.496 326.343 450.377 327.574 449.58C328.804 448.771 330.252 448.367 331.916 448.367C333.58 448.367 335.009 448.754 336.205 449.527C337.412 450.289 338.338 451.361 338.982 452.744C339.627 454.127 339.949 455.732 339.949 457.561V458.686H325.218V456.295H338.437L336.89 458.51V457.332C336.89 455.914 336.674 454.742 336.24 453.816C335.818 452.891 335.232 452.205 334.482 451.76C333.732 451.303 332.871 451.074 331.898 451.074C330.925 451.074 330.052 451.314 329.279 451.795C328.506 452.264 327.896 452.967 327.451 453.904C327.006 454.83 326.783 455.973 326.783 457.332V458.51C326.783 459.799 327 460.9 327.433 461.814C327.879 462.729 328.506 463.432 329.314 463.924C330.123 464.404 331.078 464.645 332.179 464.645C332.953 464.645 333.644 464.527 334.254 464.293C334.863 464.059 335.373 463.736 335.783 463.326C336.193 462.916 336.486 462.447 336.662 461.92L336.715 461.762H339.72L339.685 461.938C339.533 462.688 339.24 463.391 338.806 464.047C338.384 464.703 337.84 465.283 337.172 465.787C336.504 466.279 335.742 466.666 334.886 466.947C334.031 467.217 333.105 467.352 332.109 467.352ZM350.456 467.352C348.897 467.352 347.532 466.965 346.36 466.191C345.2 465.406 344.297 464.305 343.653 462.887C343.008 461.457 342.686 459.781 342.686 457.859V457.842C342.686 455.92 343.008 454.25 343.653 452.832C344.309 451.414 345.217 450.318 346.378 449.545C347.538 448.76 348.88 448.367 350.403 448.367C351.27 448.367 352.073 448.508 352.811 448.789C353.561 449.059 354.229 449.451 354.815 449.967C355.401 450.471 355.881 451.074 356.256 451.777H356.327V441.635H359.385V467H356.327V463.906H356.256C355.881 464.621 355.407 465.236 354.833 465.752C354.258 466.256 353.602 466.648 352.864 466.93C352.137 467.211 351.335 467.352 350.456 467.352ZM351.053 464.645C352.085 464.645 352.999 464.363 353.796 463.801C354.592 463.238 355.214 462.447 355.659 461.428C356.116 460.408 356.344 459.219 356.344 457.859V457.842C356.344 456.482 356.116 455.299 355.659 454.291C355.202 453.271 354.575 452.48 353.778 451.918C352.993 451.355 352.085 451.074 351.053 451.074C349.975 451.074 349.044 451.35 348.258 451.9C347.473 452.451 346.87 453.23 346.448 454.238C346.026 455.246 345.815 456.447 345.815 457.842V457.859C345.815 459.254 346.026 460.461 346.448 461.48C346.87 462.5 347.473 463.285 348.258 463.836C349.044 464.375 349.975 464.645 351.053 464.645Z" fill="#363636"/>
<rect x="188" y="494" width="64" height="28" rx="14" fill="#34C759"/>
<rect x="200" y="503" width="1" height="10" fill="white"/>
<rect x="211" y="496" width="39" height="24" rx="12" fill="white"/>
</g>
<defs>
<clipPath id="clip0_447_800">
<rect width="440" height="956" rx="34.9206" fill="white"/>
</clipPath>
</defs>
</svg>
